<?xml version="1.0" encoding="UTF-8" standalone="no"?><!DOCTYPE svg PUBLIC "-//W3C//DTD SVG 1.1//EN" "http://www.w3.org/Graphics/SVG/1.1/DTD/svg11.dtd"><!-- Generated by graphviz version 2.40.1 (20161225.0304)
 --><!-- Title: G Pages: 1 --><svg xmlns="http://www.w3.org/2000/svg" xmlns:xlink="http://www.w3.org/1999/xlink" width="1052pt" height="167pt" viewBox="0.00 0.00 1052.00 167.00">
<g id="graph0" class="graph" transform="scale(1 1) rotate(0) translate(4 163)">
<title>G</title>
<polygon fill="#ffffff" stroke="transparent" points="-4,4 -4,-163 1048,-163 1048,4 -4,4"/>
<!-- 1 -->
<g id="node1" class="node">
<title>1</title>
<ellipse fill="none" stroke="#000000" cx="207" cy="-46" rx="27" ry="18"/>
<text text-anchor="middle" x="207" y="-41.8" font-family="Times,serif" font-size="14.00" fill="#000000">1</text>
</g>
<!-- 2 -->
<g id="node2" class="node">
<title>2</title>
<ellipse fill="none" stroke="#000000" cx="297" cy="-78" rx="27" ry="18"/>
<text text-anchor="middle" x="297" y="-73.8" font-family="Times,serif" font-size="14.00" fill="#000000">2</text>
</g>
<!-- 1&#45;&gt;2 -->
<g id="edge3" class="edge">
<title>1-&gt;2</title>
<path fill="none" stroke="#000000" d="M231.1183,-54.5754C241.0846,-58.119 252.8067,-62.2868 263.5789,-66.1169"/>
<polygon fill="#000000" stroke="#000000" points="262.5324,-69.4595 273.1272,-69.5119 264.8776,-62.864 262.5324,-69.4595"/>
</g>
<!-- 3 -->
<g id="node3" class="node">
<title>3</title>
<ellipse fill="none" stroke="#000000" cx="297" cy="-19" rx="27" ry="18"/>
<text text-anchor="middle" x="297" y="-14.8" font-family="Times,serif" font-size="14.00" fill="#000000">3</text>
</g>
<!-- 1&#45;&gt;3 -->
<g id="edge4" class="edge">
<title>1-&gt;3</title>
<path fill="none" stroke="#000000" d="M232.07,-38.479C241.5102,-35.6469 252.4169,-32.3749 262.564,-29.3308"/>
<polygon fill="#000000" stroke="#000000" points="263.803,-32.6133 272.3755,-26.3874 261.7915,-25.9085 263.803,-32.6133"/>
</g>
<!-- 5 -->
<g id="node5" class="node">
<title>5</title>
<ellipse fill="none" stroke="#000000" cx="387" cy="-141" rx="27" ry="18"/>
<text text-anchor="middle" x="387" y="-136.8" font-family="Times,serif" font-size="14.00" fill="#000000">5</text>
</g>
<!-- 2&#45;&gt;5 -->
<g id="edge5" class="edge">
<title>2-&gt;5</title>
<path fill="none" stroke="#000000" d="M315.6481,-91.0536C328.4395,-100.0076 345.617,-112.0319 359.9124,-122.0387"/>
<polygon fill="#000000" stroke="#000000" points="358.1764,-125.0957 368.3758,-127.9631 362.1906,-119.3611 358.1764,-125.0957"/>
</g>
<!-- 6 -->
<g id="node6" class="node">
<title>6</title>
<ellipse fill="none" stroke="#000000" cx="387" cy="-78" rx="27" ry="18"/>
<text text-anchor="middle" x="387" y="-73.8" font-family="Times,serif" font-size="14.00" fill="#000000">6</text>
</g>
<!-- 2&#45;&gt;6 -->
<g id="edge6" class="edge">
<title>2-&gt;6</title>
<path fill="none" stroke="#000000" d="M324.003,-78C332.0277,-78 340.9665,-78 349.5309,-78"/>
<polygon fill="#000000" stroke="#000000" points="349.7051,-81.5001 359.705,-78 349.705,-74.5001 349.7051,-81.5001"/>
</g>
<!-- 4 -->
<g id="node4" class="node">
<title>4</title>
<ellipse fill="none" stroke="#000000" cx="747" cy="-19" rx="27" ry="18"/>
<text text-anchor="middle" x="747" y="-14.8" font-family="Times,serif" font-size="14.00" fill="#000000">4</text>
</g>
<!-- 3&#45;&gt;4 -->
<g id="edge7" class="edge">
<title>3-&gt;4</title>
<path fill="none" stroke="#000000" d="M323.4417,-14.449C358.4519,-8.828 422.1658,0 477,0 477,0 477,0 567,0 616.9077,0 674.1712,-7.313 710.4541,-12.8651"/>
<polygon fill="#000000" stroke="#000000" points="710.1369,-16.358 720.5583,-14.449 711.221,-9.4425 710.1369,-16.358"/>
</g>
<!-- 14 -->
<g id="node14" class="node">
<title>14</title>
<ellipse fill="none" stroke="#000000" cx="837" cy="-46" rx="27" ry="18"/>
<text text-anchor="middle" x="837" y="-41.8" font-family="Times,serif" font-size="14.00" fill="#000000">14</text>
</g>
<!-- 4&#45;&gt;14 -->
<g id="edge18" class="edge">
<title>4-&gt;14</title>
<path fill="none" stroke="#000000" d="M772.07,-26.521C781.5102,-29.3531 792.4169,-32.6251 802.564,-35.6692"/>
<polygon fill="#000000" stroke="#000000" points="801.7915,-39.0915 812.3755,-38.6126 803.803,-32.3867 801.7915,-39.0915"/>
</g>
<!-- 7 -->
<g id="node7" class="node">
<title>7</title>
<ellipse fill="none" stroke="#000000" cx="657" cy="-141" rx="27" ry="18"/>
<text text-anchor="middle" x="657" y="-136.8" font-family="Times,serif" font-size="14.00" fill="#000000">7</text>
</g>
<!-- 5&#45;&gt;7 -->
<g id="edge8" class="edge">
<title>5-&gt;7</title>
<path fill="none" stroke="#000000" d="M414.1248,-141C462.7438,-141 564.7806,-141 619.8565,-141"/>
<polygon fill="#000000" stroke="#000000" points="619.8932,-144.5001 629.8932,-141 619.8932,-137.5001 619.8932,-144.5001"/>
</g>
<!-- 8 -->
<g id="node8" class="node">
<title>8</title>
<ellipse fill="none" stroke="#000000" cx="477" cy="-100" rx="27" ry="18"/>
<text text-anchor="middle" x="477" y="-95.8" font-family="Times,serif" font-size="14.00" fill="#000000">8</text>
</g>
<!-- 6&#45;&gt;8 -->
<g id="edge9" class="edge">
<title>6-&gt;8</title>
<path fill="none" stroke="#000000" d="M412.5497,-84.2455C421.5751,-86.4517 431.8933,-88.9739 441.5886,-91.3439"/>
<polygon fill="#000000" stroke="#000000" points="440.8414,-94.7642 451.3865,-93.7389 442.5036,-87.9644 440.8414,-94.7642"/>
</g>
<!-- 9 -->
<g id="node9" class="node">
<title>9</title>
<ellipse fill="none" stroke="#000000" cx="477" cy="-46" rx="27" ry="18"/>
<text text-anchor="middle" x="477" y="-41.8" font-family="Times,serif" font-size="14.00" fill="#000000">9</text>
</g>
<!-- 6&#45;&gt;9 -->
<g id="edge10" class="edge">
<title>6-&gt;9</title>
<path fill="none" stroke="#000000" d="M411.1183,-69.4246C421.0846,-65.881 432.8067,-61.7132 443.5789,-57.8831"/>
<polygon fill="#000000" stroke="#000000" points="444.8776,-61.136 453.1272,-54.4881 442.5324,-54.5405 444.8776,-61.136"/>
</g>
<!-- 13 -->
<g id="node13" class="node">
<title>13</title>
<ellipse fill="none" stroke="#000000" cx="747" cy="-82" rx="27" ry="18"/>
<text text-anchor="middle" x="747" y="-77.8" font-family="Times,serif" font-size="14.00" fill="#000000">13</text>
</g>
<!-- 7&#45;&gt;13 -->
<g id="edge11" class="edge">
<title>7-&gt;13</title>
<path fill="none" stroke="#000000" d="M676.5287,-128.1979C688.9121,-120.0798 705.1327,-109.4463 718.8899,-100.4277"/>
<polygon fill="#000000" stroke="#000000" points="721.0652,-103.1868 727.5095,-94.7771 717.2274,-97.3326 721.0652,-103.1868"/>
</g>
<!-- 10 -->
<g id="node10" class="node">
<title>10</title>
<ellipse fill="none" stroke="#000000" cx="567" cy="-100" rx="27" ry="18"/>
<text text-anchor="middle" x="567" y="-95.8" font-family="Times,serif" font-size="14.00" fill="#000000">10</text>
</g>
<!-- 8&#45;&gt;10 -->
<g id="edge12" class="edge">
<title>8-&gt;10</title>
<path fill="none" stroke="#000000" d="M504.003,-100C512.0277,-100 520.9665,-100 529.5309,-100"/>
<polygon fill="#000000" stroke="#000000" points="529.7051,-103.5001 539.705,-100 529.705,-96.5001 529.7051,-103.5001"/>
</g>
<!-- 11 -->
<g id="node11" class="node">
<title>11</title>
<ellipse fill="none" stroke="#000000" cx="567" cy="-46" rx="27" ry="18"/>
<text text-anchor="middle" x="567" y="-41.8" font-family="Times,serif" font-size="14.00" fill="#000000">11</text>
</g>
<!-- 9&#45;&gt;11 -->
<g id="edge13" class="edge">
<title>9-&gt;11</title>
<path fill="none" stroke="#000000" d="M504.003,-46C512.0277,-46 520.9665,-46 529.5309,-46"/>
<polygon fill="#000000" stroke="#000000" points="529.7051,-49.5001 539.705,-46 529.705,-42.5001 529.7051,-49.5001"/>
</g>
<!-- 12 -->
<g id="node12" class="node">
<title>12</title>
<ellipse fill="none" stroke="#000000" cx="657" cy="-82" rx="27" ry="18"/>
<text text-anchor="middle" x="657" y="-77.8" font-family="Times,serif" font-size="14.00" fill="#000000">12</text>
</g>
<!-- 10&#45;&gt;12 -->
<g id="edge14" class="edge">
<title>10-&gt;12</title>
<path fill="none" stroke="#000000" d="M593.0317,-94.7937C601.8005,-93.0399 611.7454,-91.0509 621.1362,-89.1728"/>
<polygon fill="#000000" stroke="#000000" points="621.9074,-92.5879 631.0268,-87.1946 620.5345,-85.7239 621.9074,-92.5879"/>
</g>
<!-- 11&#45;&gt;12 -->
<g id="edge15" class="edge">
<title>11-&gt;12</title>
<path fill="none" stroke="#000000" d="M590.1772,-55.2709C600.4896,-59.3958 612.8195,-64.3278 624.0641,-68.8257"/>
<polygon fill="#000000" stroke="#000000" points="623.0038,-72.1711 633.5885,-72.6354 625.6036,-65.6718 623.0038,-72.1711"/>
</g>
<!-- 12&#45;&gt;13 -->
<g id="edge16" class="edge">
<title>12-&gt;13</title>
<path fill="none" stroke="#000000" d="M684.003,-82C692.0277,-82 700.9665,-82 709.5309,-82"/>
<polygon fill="#000000" stroke="#000000" points="709.7051,-85.5001 719.705,-82 709.705,-78.5001 709.7051,-85.5001"/>
</g>
<!-- 13&#45;&gt;14 -->
<g id="edge17" class="edge">
<title>13-&gt;14</title>
<path fill="none" stroke="#000000" d="M770.1772,-72.7291C780.4896,-68.6042 792.8195,-63.6722 804.0641,-59.1743"/>
<polygon fill="#000000" stroke="#000000" points="805.6036,-62.3282 813.5885,-55.3646 803.0038,-55.8289 805.6036,-62.3282"/>
</g>
<!-- 16 -->
<g id="node16" class="node">
<title>16</title>
<ellipse fill="none" stroke="#000000" cx="927" cy="-73" rx="27" ry="18"/>
<text text-anchor="middle" x="927" y="-68.8" font-family="Times,serif" font-size="14.00" fill="#000000">16</text>
</g>
<!-- 14&#45;&gt;16 -->
<g id="edge19" class="edge">
<title>14-&gt;16</title>
<path fill="none" stroke="#000000" d="M862.07,-53.521C871.5102,-56.3531 882.4169,-59.6251 892.564,-62.6692"/>
<polygon fill="#000000" stroke="#000000" points="891.7915,-66.0915 902.3755,-65.6126 893.803,-59.3867 891.7915,-66.0915"/>
</g>
<!-- 18 -->
<g id="node18" class="node">
<title>18</title>
<ellipse fill="none" stroke="#000000" cx="927" cy="-19" rx="27" ry="18"/>
<text text-anchor="middle" x="927" y="-14.8" font-family="Times,serif" font-size="14.00" fill="#000000">18</text>
</g>
<!-- 14&#45;&gt;18 -->
<g id="edge20" class="edge">
<title>14-&gt;18</title>
<path fill="none" stroke="#000000" d="M862.07,-38.479C871.5102,-35.6469 882.4169,-32.3749 892.564,-29.3308"/>
<polygon fill="#000000" stroke="#000000" points="893.803,-32.6133 902.3755,-26.3874 891.7915,-25.9085 893.803,-32.6133"/>
</g>
<!-- 15 -->
<g id="node15" class="node">
<title>15</title>
<ellipse fill="none" stroke="#000000" cx="27" cy="-46" rx="27" ry="18"/>
<text text-anchor="middle" x="27" y="-41.8" font-family="Times,serif" font-size="14.00" fill="#000000">15</text>
</g>
<!-- 17 -->
<g id="node17" class="node">
<title>17</title>
<ellipse fill="none" stroke="#000000" cx="117" cy="-46" rx="27" ry="18"/>
<text text-anchor="middle" x="117" y="-41.8" font-family="Times,serif" font-size="14.00" fill="#000000">17</text>
</g>
<!-- 15&#45;&gt;17 -->
<g id="edge1" class="edge">
<title>15-&gt;17</title>
<path fill="none" stroke="#000000" d="M54.003,-46C62.0277,-46 70.9665,-46 79.5309,-46"/>
<polygon fill="#000000" stroke="#000000" points="79.7051,-49.5001 89.705,-46 79.705,-42.5001 79.7051,-49.5001"/>
</g>
<!-- 19 -->
<g id="node19" class="node">
<title>19</title>
<ellipse fill="none" stroke="#000000" cx="1017" cy="-46" rx="27" ry="18"/>
<text text-anchor="middle" x="1017" y="-41.8" font-family="Times,serif" font-size="14.00" fill="#000000">19</text>
</g>
<!-- 16&#45;&gt;19 -->
<g id="edge21" class="edge">
<title>16-&gt;19</title>
<path fill="none" stroke="#000000" d="M952.07,-65.479C961.5102,-62.6469 972.4169,-59.3749 982.564,-56.3308"/>
<polygon fill="#000000" stroke="#000000" points="983.803,-59.6133 992.3755,-53.3874 981.7915,-52.9085 983.803,-59.6133"/>
</g>
<!-- 17&#45;&gt;1 -->
<g id="edge2" class="edge">
<title>17-&gt;1</title>
<path fill="none" stroke="#000000" d="M144.003,-46C152.0277,-46 160.9665,-46 169.5309,-46"/>
<polygon fill="#000000" stroke="#000000" points="169.7051,-49.5001 179.705,-46 169.705,-42.5001 169.7051,-49.5001"/>
</g>
<!-- 18&#45;&gt;19 -->
<g id="edge22" class="edge">
<title>18-&gt;19</title>
<path fill="none" stroke="#000000" d="M952.07,-26.521C961.5102,-29.3531 972.4169,-32.6251 982.564,-35.6692"/>
<polygon fill="#000000" stroke="#000000" points="981.7915,-39.0915 992.3755,-38.6126 983.803,-32.3867 981.7915,-39.0915"/>
</g>
</g>
</svg>